GIL11_slow2_ik
nRows=3
nColumns=375

# SIMM Motion File Header:
name GIL11_slow2_ik
datacolumns 375
datarows 3
otherdata 1
range 1.24167000 1.25833000
endheader
time	pelvis_tx	pelvis_ty	pelvis_tz	pelvis_tilt	pelvis_list	pelvis_rotation	hip_flexion_r	hip_adduction_r	hip_rotation_r	knee_angle_r	ankle_angle_r	hip_flexion_l	hip_adduction_l	hip_rotation_l	knee_angle_l	ankle_angle_l	lumbar_extension	lumbar_bending	lumbar_rotation	subtalar_angle_r	mtp_angle_r	subtalar_angle_l	mtp_angle_l	asis_r_px	asis_r_py	asis_r_pz	asis_l_px	asis_l_py	asis_l_pz	midasis_px	midasis_py	midasis_pz	psis_r_px	psis_r_py	psis_r_pz	psis_l_px	psis_l_py	psis_l_pz	hip_r_px	hip_r_py	hip_r_pz	hip_l_px	hip_l_py	hip_l_pz	midhip_px	midhip_py	midhip_pz	epicondLat_r_px	epicondLat_r_py	epicondLat_r_pz	epicondMed_r_px	epicondMed_r_py	epicondMed_r_pz	thighwand_r_px	thighwand_r_py	thighwand_r_pz	upperleg1_r_px	upperleg1_r_py	upperleg1_r_pz	upperleg2_r_px	upperleg2_r_py	upperleg2_r_pz	malleolusLat_r_px	malleolusLat_r_py	malleolusLat_r_pz	malleolusMedv_r_px	malleolusMedv_r_py	malleolusMedv_r_pz	shankwand_r_px	shankwand_r_py	shankwand_r_pz	lowerleg1_r_px	lowerleg1_r_py	lowerleg1_r_pz	knee_r_px	knee_r_py	knee_r_pz	ankle_r_px	ankle_r_py	ankle_r_pz	toe_r_px	toe_r_py	toe_r_pz	epicondLat_l_px	epicondLat_l_py	epicondLat_l_pz	epicondMed_l_px	epicondMed_l_py	epicondMed_l_pz	thighwand_l_px	thighwand_l_py	thighwand_l_pz	upperleg1_l_px	upperleg1_l_py	upperleg1_l_pz	upperleg2_l_px	upperleg2_l_py	upperleg2_l_pz	malleolusLat_l_px	malleolusLat_l_py	malleolusLat_l_pz	malleolusMedv_l_px	malleolusMedv_l_py	malleolusMedv_l_pz	shankwand_l_px	shankwand_l_py	shankwand_l_pz	lowerleg1_l_px	lowerleg1_l_py	lowerleg1_l_pz	knee_l_px	knee_l_py	knee_l_pz	ankle_l_px	ankle_l_py	ankle_l_pz	toe_l_px	toe_l_py	toe_l_pz	subclavicle_r_px	subclavicle_r_py	subclavicle_r_pz	subclavicle_l_px	subclavicle_l_py	subclavicle_l_pz	neck_px	neck_py	neck_pz	sternalnotch_px	sternalnotch_py	sternalnotch_pz	xyphoidprocess_px	xyphoidprocess_py	xyphoidprocess_pz	midhip_tx	midhip_ty	midhip_tz	hip_r_tx	hip_r_ty	hip_r_tz	hip_l_tx	hip_l_ty	hip_l_tz	knee_r_tx	knee_r_ty	knee_r_tz	knee_l_tx	knee_l_ty	knee_l_tz	ankle_r_tx	ankle_r_ty	ankle_r_tz	ankle_l_tx	ankle_l_ty	ankle_l_tz	midasis_tx	midasis_ty	midasis_tz	asis_r_tx	asis_r_ty	asis_r_tz	asis_l_tx	asis_l_ty	asis_l_tz	psis_r_tx	psis_r_ty	psis_r_tz	psis_l_tx	psis_l_ty	psis_l_tz	epicondLat_r_tx	epicondLat_r_ty	epicondLat_r_tz	epicondLat_l_tx	epicondLat_l_ty	epicondLat_l_tz	epicondMed_r_tx	epicondMed_r_ty	epicondMed_r_tz	epicondMed_l_tx	epicondMed_l_ty	epicondMed_l_tz	malleolusLat_r_tx	malleolusLat_r_ty	malleolusLat_r_tz	malleolusLat_l_tx	malleolusLat_l_ty	malleolusLat_l_tz	malleolusMedv_r_tx	malleolusMedv_r_ty	malleolusMedv_r_tz	malleolusMedv_l_tx	malleolusMedv_l_ty	malleolusMedv_l_tz	neck_tx	neck_ty	neck_tz	subclavicle_r_tx	subclavicle_r_ty	subclavicle_r_tz	subclavicle_l_tx	subclavicle_l_ty	subclavicle_l_tz	sternalnotch_tx	sternalnotch_ty	sternalnotch_tz	xyphoidprocess_tx	xyphoidprocess_ty	xyphoidprocess_tz	thighwand_r_tx	thighwand_r_ty	thighwand_r_tz	thighwand_l_tx	thighwand_l_ty	thighwand_l_tz	upperleg1_r_tx	upperleg1_r_ty	upperleg1_r_tz	upperleg1_l_tx	upperleg1_l_ty	upperleg1_l_tz	upperleg2_r_tx	upperleg2_r_ty	upperleg2_r_tz	upperleg2_l_tx	upperleg2_l_ty	upperleg2_l_tz	shankwand_r_tx	shankwand_r_ty	shankwand_r_tz	shankwand_l_tx	shankwand_l_ty	shankwand_l_tz	lowerleg1_r_tx	lowerleg1_r_ty	lowerleg1_r_tz	lowerleg1_l_tx	lowerleg1_l_ty	lowerleg1_l_tz	toe_r_tx	toe_r_ty	toe_r_tz	toe_l_tx	toe_l_ty	toe_l_tz	ground_force_vx	ground_force_vy	ground_force_vz	ground_force_px	ground_force_py	ground_force_pz	ground_force_vx	ground_force_vy	ground_force_vz	ground_force_px	ground_force_py	ground_force_pz	ground_torque_x	ground_torque_y	ground_torque_z	ground_torque_x	ground_torque_y	ground_torque_z	ground_marker_px	ground_marker_py	ground_marker_pz	ground_marker_px	ground_marker_py	ground_marker_pz	ground_marker_px	ground_marker_py	ground_marker_pz	ground_marker_px	ground_marker_py	ground_marker_pz	ground_marker_px	ground_marker_py	ground_marker_pz	ground_marker_px	ground_marker_py	ground_marker_pz	ground_marker_px	ground_marker_py	ground_marker_pz	ground_marker_px	ground_marker_py	ground_marker_pz	ground_marker_px	ground_marker_py	ground_marker_pz	ground_marker_px	ground_marker_py	ground_marker_pz	ground_marker_px	ground_marker_py	ground_marker_pz	ground_marker_px	ground_marker_py	ground_marker_pz	ground_marker_px	ground_marker_py	ground_marker_pz	ground_marker_px	ground_marker_py	ground_marker_pz	ground_marker_px	ground_marker_py	ground_marker_pz	ground_marker_px	ground_marker_py	ground_marker_pz	ground_marker_px	ground_marker_py	ground_marker_pz	ground_marker_px	ground_marker_py	ground_marker_pz	ground_marker_px	ground_marker_py	ground_marker_pz	ground_marker_px	ground_marker_py	ground_marker_pz	ground_marker_px	ground_marker_py	ground_marker_pz	ground_marker_px	ground_marker_py	ground_marker_pz	ground_marker_px	ground_marker_py	ground_marker_pz	ground_marker_px	ground_marker_py	ground_marker_pz	ground_marker_px	ground_marker_py	ground_marker_pz	ground_marker_px	ground_marker_py	ground_marker_pz	ground_marker_px	ground_marker_py	ground_marker_pz	ground_marker_px	ground_marker_py	ground_marker_pz	ground_marker_px	ground_marker_py	ground_marker_pz	ground_marker_px	ground_marker_py	ground_marker_pz	ground_marker_px	ground_marker_py	ground_marker_pz	ground_marker_px	ground_marker_py	ground_marker_pz	ground_marker_px	ground_marker_py	ground_marker_pz	ground_marker_px	ground_marker_py	ground_marker_pz	ground_marker_px	ground_marker_py	ground_marker_pz	ground_marker_px	ground_marker_py	ground_marker_pz	ground_marker_px	ground_marker_py	ground_marker_pz
      1.24167000	      2.21291457	      0.86932455	     -0.22725748	     -5.76582160	     -1.56829747	      3.27558320	      3.18089149	      4.62198078	      7.08083046	     -3.94749552	      6.05570286	     28.12810658	     -3.74724646	     10.30487803	    -43.68547345	      2.54738417	     -0.55535392	      0.77426881	      2.89091848	      0.00000000	      0.00000000	      0.00000000	      0.00000000	      2.26695688	      0.85667252	     -0.11919322	      2.25144422	      0.85512944	     -0.35391308	      2.22569118	      0.86801422	     -0.22799227	      2.07628256	      0.94444193	     -0.19203483	      2.06920411	      0.94039585	     -0.24613119	      2.14686549	      0.81717763	     -0.14531015	      2.13772031	      0.81388671	     -0.29845871	      2.14229290	      0.81553217	     -0.22188443	      2.15903134	      0.42138243	     -0.11116739	      2.13849384	      0.42823632	     -0.22621673	      2.30833187	      0.55537758	     -0.20452716	      2.25468941	      0.60744158	     -0.13863014	      2.23725180	      0.52116501	     -0.13887224	      2.06870601	      0.05555824	     -0.13302225	      2.09032072	      0.05923478	     -0.20515796	      2.07823830	      0.13053947	     -0.06295232	      2.07944875	      0.14096270	     -0.10599041	      2.12424009	      0.44047480	     -0.16590330	      2.08046347	      0.07037367	     -0.18222353	      2.18224691	      0.02041024	     -0.13299904	      2.31808635	      0.46596667	     -0.39169531	      2.30366742	      0.46115188	     -0.26873035	      2.30618304	      0.60802336	     -0.46231338	      2.22680600	      0.62709344	     -0.40756327	      2.26476342	      0.54783691	     -0.39985518	      2.13047566	      0.11326502	     -0.42411426	      2.14737385	      0.10685648	     -0.35579060	      2.27340105	      0.17837792	     -0.35982805	      2.23509556	      0.19402725	     -0.36831322	      2.28365181	      0.46053785	     -0.32423253	      2.14687914	      0.11684065	     -0.37243063	      2.23205766	      0.04644637	     -0.41586114	      2.22964700	      1.32700326	     -0.18303012	      2.22038533	      1.32257621	     -0.28843347	      2.09597891	      1.36658408	     -0.22166597	      2.22210139	      1.32103790	     -0.23478057	      2.27208457	      1.25867420	     -0.24040270	      2.14512400	      0.82028700	     -0.23230800	      2.14113600	      0.80508900	     -0.15411700	      2.12715100	      0.80608800	     -0.30559700	      2.12343300	      0.43958900	     -0.17959200	      2.27749500	      0.43951600	     -0.35420700	      2.07917300	      0.06446500	     -0.20135400	      2.14587400	      0.11469300	     -0.32604600	      2.22614500	      0.87740600	     -0.23482400	      2.23317700	      0.87660400	     -0.11615400	      2.21911300	      0.87820700	     -0.35349300	      2.03442200	      0.94306000	     -0.19472400	      2.02647900	      0.93689400	     -0.24956300	      2.13382400	      0.43512100	     -0.12270600	      2.28229000	      0.44904200	     -0.41121800	      2.11429800	      0.44003500	     -0.22746100	      2.31318400	      0.45122600	     -0.29547700	      2.06675800	      0.06372400	     -0.16333600	      2.12293100	      0.12120600	     -0.35815800	      2.08885600	      0.07418500	     -0.23451300	      2.16678100	      0.11694100	     -0.30673600	      2.09643400	      1.37528300	     -0.22152000	      2.22853300	      1.31752600	     -0.18299200	      2.21899600	      1.31209800	     -0.28898400	      2.22058300	      1.31120700	     -0.23506500	      2.26205200	      1.24315900	     -0.23907100	      2.28537000	      0.56440000	     -0.20415600	      2.27206600	      0.58967700	     -0.49066900	      2.23260400	      0.61681200	     -0.13819800	      2.20187900	      0.60596200	     -0.42340300	      2.21425200	      0.53115600	     -0.13926600	      2.24628100	      0.52997300	     -0.42024200	      2.07061300	      0.13712400	     -0.08747500	      2.27808100	      0.19357900	     -0.35634900	      2.07163400	      0.14805400	     -0.12981500	      2.23923700	      0.20773100	     -0.35187600	      2.17867900	      0.03632100	     -0.17545000	      2.22059400	      0.06208300	     -0.38293600	     -3.91419208	    575.81326278	    -26.72610868	      2.14920972	      0.00000000	     -0.18250247	      0.00000000	      0.00000000	      0.00000000	      1.70235645	      0.00000000	     -0.35041309	      0.00000000	      1.50579663	      0.00000000	      0.00000000	      0.00000000	      0.00000000	      2.14512396	      0.82028723	     -0.23230782	      2.14113569	      0.80508858	     -0.15411685	      2.12715054	      0.80608827	     -0.30559695	      2.12343287	      0.43958923	     -0.17959233	      2.27749491	      0.43951601	     -0.35420689	      2.07917261	      0.06446478	     -0.20135377	      2.14587355	      0.11469316	     -0.32604596	      2.22614479	      0.87740588	     -0.23482367	      2.23317695	      0.87660426	     -0.11615422	      2.21911263	      0.87820745	     -0.35349312	      2.03442240	      0.94305980	     -0.19472431	      2.02647948	      0.93689430	     -0.24956281	      2.13382435	      0.43512091	     -0.12270609	      2.28228951	      0.44904250	     -0.41121793	      2.11429787	      0.44003454	     -0.22746067	      2.31318426	      0.45122615	     -0.29547665	      2.06675839	      0.06372409	     -0.16333625	      2.12293100	      0.12120575	     -0.35815850	      2.08885598	      0.07418538	     -0.23451287	      2.16678095	      0.11694088	     -0.30673644	      2.09643388	      1.37528312	     -0.22151953	      2.22853303	      1.31752586	     -0.18299222	      2.21899629	      1.31209779	     -0.28898370	      2.22058272	      1.31120729	     -0.23506510	      2.26205206	      1.24315929	     -0.23907094	      2.28537011	      0.56440037	     -0.20415564	      2.27206612	      0.58967674	     -0.49066913	      2.23260379	      0.61681181	     -0.13819760	      2.20187855	      0.60596246	     -0.42340347	      2.21425247	      0.53115606	     -0.13926640	      2.24628091	      0.52997315	     -0.42024210	      2.07061291	      0.13712442	     -0.08747454	      2.27808142	      0.19357935	     -0.35634944	      2.07163382	      0.14805432	     -0.12981457	      2.23923731	      0.20773052	     -0.35187578	      2.17867947	      0.03632091	     -0.17544979	      2.22059441	      0.06208267	     -0.38293570
      1.25000000	      2.21852802	      0.86864490	     -0.22772370	     -5.85855507	     -1.40327915	      3.18497288	      2.91586063	      4.52580194	      6.75654801	     -4.06698928	      6.51866116	     28.77991113	     -3.64448627	      9.74550703	    -42.27433171	      2.65085419	     -0.55686671	      0.64799155	      3.05345960	      0.00000000	      0.00000000	      0.00000000	      0.00000000	      2.27234853	      0.85561537	     -0.11959364	      2.25727161	      0.85473143	     -0.35434529	      2.23130390	      0.86731638	     -0.22843824	      2.08194898	      0.94388256	     -0.19255238	      2.07496515	      0.93999395	     -0.24667258	      2.15224405	      0.81638103	     -0.14604097	      2.14337958	      0.81351865	     -0.29921464	      2.14781181	      0.81494984	     -0.22262781	      2.16161281	      0.42050100	     -0.11199980	      2.14198525	      0.42753688	     -0.22719690	      2.31246778	      0.55357560	     -0.20416988	      2.25866661	      0.60595414	     -0.13865260	      2.24067804	      0.51979142	     -0.13906760	      2.06833889	      0.05539628	     -0.13456868	      2.09051581	      0.05889442	     -0.20654244	      2.07798827	      0.13028945	     -0.06442066	      2.07960457	      0.14070491	     -0.10744730	      2.12737140	      0.43983094	     -0.16698943	      2.08058422	      0.07011487	     -0.18367994	      2.18188062	      0.02006646	     -0.13354553	      2.32678397	      0.46733279	     -0.39297763	      2.31323748	      0.46261469	     -0.26990976	      2.31291008	      0.60911301	     -0.46379139	      2.23370314	      0.62745535	     -0.40854850	      2.27254609	      0.54861935	     -0.40094008	      2.15126210	      0.10906910	     -0.42318371	      2.16864794	      0.10352755	     -0.35490659	      2.29207969	      0.17939388	     -0.35974154	      2.25321664	      0.19366074	     -0.36812786	      2.29259950	      0.46187934	     -0.32527356	      2.16773765	      0.11342192	     -0.37158269	      2.25527045	      0.04603946	     -0.41510920	      2.23600424	      1.32625934	     -0.18323669	      2.22660931	      1.32193435	     -0.28863249	      2.10235021	      1.36607548	     -0.22167889	      2.22838744	      1.32034864	     -0.23498298	      2.27826894	      1.25791378	     -0.24071711	      2.15051400	      0.81981000	     -0.23231300	      2.14652400	      0.80460600	     -0.15438200	      2.13276500	      0.80589000	     -0.30588000	      2.12660600	      0.43934100	     -0.18010900	      2.28691700	      0.44063400	     -0.35390500	      2.07936800	      0.06448400	     -0.20172200	      2.16666200	      0.11050700	     -0.32793100	      2.23176900	      0.87692500	     -0.23483800	      2.23862800	      0.87590700	     -0.11610700	      2.22491100	      0.87794400	     -0.35356800	      2.04003800	      0.94285100	     -0.19495700	      2.03223400	      0.93674400	     -0.24975600	      2.13656600	      0.43478600	     -0.12315200	      2.29120600	      0.44995000	     -0.41099200	      2.11660700	      0.44190700	     -0.23047100	      2.32102100	      0.45298800	     -0.29425800	      2.06698300	      0.06385200	     -0.16369300	      2.14314900	      0.11657000	     -0.35971800	      2.08827100	      0.07438500	     -0.23515000	      2.18764000	      0.11306600	     -0.30898200	      2.10272500	      1.37505400	     -0.22149600	      2.23498700	      1.31692900	     -0.18330500	      2.22539600	      1.31141900	     -0.28935800	      2.22688400	      1.31065100	     -0.23532700	      2.26834200	      1.24244600	     -0.23936200	      2.28968100	      0.56319900	     -0.20350500	      2.27889000	      0.58993000	     -0.49093200	      2.23664400	      0.61590100	     -0.13752800	      2.20894900	      0.60599100	     -0.42371200	      2.21671600	      0.53007000	     -0.13981800	      2.25372400	      0.53007300	     -0.41978000	      2.07149000	      0.13731000	     -0.08783900	      2.29568800	      0.19435500	     -0.35876500	      2.07205100	      0.14817900	     -0.13024100	      2.25643700	      0.20704100	     -0.35348800	      2.17878900	      0.03639200	     -0.17554500	      2.24262800	      0.06132300	     -0.38605300	     -2.41199410	    577.91888047	    -26.06640840	      2.15169141	      0.00000000	     -0.18244070	      0.00000000	      0.00000000	      0.00000000	      1.70290515	      0.00000000	     -0.35062103	      0.00000000	      1.64002771	      0.00000000	      0.00000000	      0.00000000	      0.00000000	      2.15051389	      0.81981027	     -0.23231328	      2.14652443	      0.80460644	     -0.15438160	      2.13276482	      0.80589002	     -0.30588022	      2.12660551	      0.43934128	     -0.18010852	      2.28691721	      0.44063413	     -0.35390532	      2.07936764	      0.06448442	     -0.20172226	      2.16666198	      0.11050650	     -0.32793117	      2.23176908	      0.87692541	     -0.23483789	      2.23862767	      0.87590730	     -0.11610733	      2.22491074	      0.87794352	     -0.35356843	      2.04003763	      0.94285131	     -0.19495669	      2.03223372	      0.93674374	     -0.24975611	      2.13656569	      0.43478647	     -0.12315200	      2.29120564	      0.44994977	     -0.41099152	      2.11660671	      0.44190699	     -0.23047067	      2.32102084	      0.45298764	     -0.29425824	      2.06698275	      0.06385241	     -0.16369314	      2.14314914	      0.11657048	     -0.35971776	      2.08827066	      0.07438532	     -0.23514965	      2.18763995	      0.11306621	     -0.30898163	      2.10272455	      1.37505424	     -0.22149611	      2.23498702	      1.31692934	     -0.18330464	      2.22539616	      1.31141853	     -0.28935763	      2.22688365	      1.31065071	     -0.23532683	      2.26834226	      1.24244630	     -0.23936199	      2.28968120	      0.56319910	     -0.20350504	      2.27889013	      0.58992982	     -0.49093181	      2.23664427	      0.61590147	     -0.13752799	      2.20894861	      0.60599053	     -0.42371181	      2.21671581	      0.53006989	     -0.13981751	      2.25372410	      0.53007281	     -0.41978049	      2.07149029	      0.13731028	     -0.08783910	      2.29568768	      0.19435522	     -0.35876477	      2.07205057	      0.14817934	     -0.13024051	      2.25643659	      0.20704128	     -0.35348779	      2.17878890	      0.03639193	     -0.17554475	      2.24262834	      0.06132330	     -0.38605273
      1.25833000	      2.22436174	      0.86799263	     -0.22826031	     -5.94922368	     -1.24960915	      3.11696794	      2.63235119	      4.43611506	      6.37598515	     -4.16761196	      6.94342931	     29.39312522	     -3.55889120	      9.16742287	    -40.84267111	      2.71563709	     -0.54796501	      0.55036204	      3.27282047	      0.00000000	      0.00000000	      0.00000000	      0.00000000	      2.27800423	      0.85460422	     -0.12008563	      2.26326828	      0.85434112	     -0.35486045	      2.23713658	      0.86664605	     -0.22895965	      2.08784858	      0.94335310	     -0.19309613	      2.08093765	      0.93961309	     -0.24723616	      2.15787765	      0.81562434	     -0.14680743	      2.14923210	      0.81316554	     -0.30000063	      2.15355487	      0.81439494	     -0.22340403	      2.16428385	      0.41968016	     -0.11282592	      2.14563538	      0.42688189	     -0.22817532	      2.31677800	      0.55175353	     -0.20373003	      2.26280629	      0.60447756	     -0.13863146	      2.24423722	      0.51843910	     -0.13922088	      2.06807095	      0.05533235	     -0.13615666	      2.09084885	      0.05864046	     -0.20795149	      2.07779935	      0.13014163	     -0.06593008	      2.07984661	      0.14054232	     -0.10894194	      2.13063153	      0.43924983	     -0.16808613	      2.08083158	      0.06994541	     -0.18516815	      2.18157568	      0.01975068	     -0.13407628	      2.33536342	      0.46861082	     -0.39439608	      2.32277583	      0.46402602	     -0.27122140	      2.31955954	      0.61009253	     -0.46540219	      2.24058561	      0.62776920	     -0.40961141	      2.28026418	      0.54933859	     -0.40212617	      2.17200084	      0.10527405	     -0.42230285	      2.18989168	      0.10061025	     -0.35409062	      2.31059179	      0.18069260	     -0.35981553	      2.27121774	      0.19356939	     -0.36806670	      2.30147067	      0.46316082	     -0.32642617	      2.18855958	      0.11040075	     -0.37079963	      2.27824210	      0.04602792	     -0.41450466	      2.24257583	      1.32553741	     -0.18345700	      2.23290706	      1.32136202	     -0.28883406	      2.10887872	      1.36558459	     -0.22150738	      2.23481946	      1.31970425	     -0.23519135	      2.28460132	      1.25720931	     -0.24113325	      2.15638000	      0.81968900	     -0.23241300	      2.15204000	      0.80407200	     -0.15463300	      2.13845600	      0.80562000	     -0.30614500	      2.12982200	      0.43910600	     -0.18061400	      2.29616500	      0.44164900	     -0.35364700	      2.07964900	      0.06456300	     -0.20206200	      2.18743600	      0.10658400	     -0.32996100	      2.23748800	      0.87639000	     -0.23487600	      2.24421400	      0.87517000	     -0.11606000	      2.23076200	      0.87761000	     -0.35369100	      2.04568800	      0.94259800	     -0.19526700	      2.03802200	      0.93653500	     -0.25001400	      2.13931200	      0.43446900	     -0.12358400	      2.29991700	      0.45073500	     -0.41080800	      2.11906000	      0.44368700	     -0.23259200	      2.32998000	      0.45451000	     -0.29396900	      2.06724300	      0.06404800	     -0.16403800	      2.16340300	      0.11215700	     -0.36144700	      2.08839500	      0.07448400	     -0.23563700	      2.20865400	      0.10998900	     -0.31115700	      2.10936500	      1.37497000	     -0.22129800	      2.24143000	      1.31613200	     -0.18390700	      2.23190400	      1.31064500	     -0.28953600	      2.23320700	      1.31008200	     -0.23560500	      2.27449100	      1.24148600	     -0.23970500	      2.29400500	      0.56195800	     -0.20272500	      2.28554900	      0.58998200	     -0.49119900	      2.24128900	      0.61496300	     -0.13703800	      2.21592500	      0.60570200	     -0.42382000	      2.21967500	      0.52912900	     -0.14017000	      2.26138600	      0.53020100	     -0.41963500	      2.07228800	      0.13748000	     -0.08821900	      2.31312500	      0.19528900	     -0.36116100	      2.07271100	      0.14814100	     -0.13066500	      2.27341900	      0.20697900	     -0.35544800	      2.17888300	      0.03649200	     -0.17566300	      2.26459000	      0.06078600	     -0.38906900	     -0.80151630	    580.46487443	    -25.56228785	      2.15412427	      0.00000000	     -0.18239786	      0.00000000	      0.00000000	      0.00000000	      1.70362292	      0.00000000	     -0.35084744	      0.00000000	      1.75918689	      0.00000000	      0.00000000	      0.00000000	      0.00000000	      2.15637970	      0.81968904	     -0.23241299	      2.15204048	      0.80407214	     -0.15463276	      2.13845563	      0.80562025	     -0.30614468	      2.12982178	      0.43910617	     -0.18061371	      2.29616523	      0.44164893	     -0.35364681	      2.07964945	      0.06456327	     -0.20206207	      2.18743563	      0.10658379	     -0.32996139	      2.23748755	      0.87638974	     -0.23487562	      2.24421358	      0.87516952	     -0.11606022	      2.23076153	      0.87760991	     -0.35369101	      2.04568768	      0.94259828	     -0.19526741	      2.03802228	      0.93653476	     -0.25001445	      2.13931179	      0.43446860	     -0.12358362	      2.29991746	      0.45073491	     -0.41080767	      2.11906004	      0.44368693	     -0.23259218	      2.32998013	      0.45450976	     -0.29396886	      2.06724286	      0.06404775	     -0.16403826	      2.16340280	      0.11215680	     -0.36144736	      2.08839488	      0.07448438	     -0.23563686	      2.20865417	      0.10998861	     -0.31115666	      2.10936522	      1.37496984	     -0.22129753	      2.24142981	      1.31613243	     -0.18390730	      2.23190355	      1.31064451	     -0.28953612	      2.23320651	      1.31008160	     -0.23560470	      2.27449107	      1.24148619	     -0.23970501	      2.29400539	      0.56195760	     -0.20272453	      2.28554940	      0.58998162	     -0.49119890	      2.24128938	      0.61496294	     -0.13703808	      2.21592450	      0.60570163	     -0.42382044	      2.21967459	      0.52912861	     -0.14016968	      2.26138616	      0.53020108	     -0.41963491	      2.07228827	      0.13748039	     -0.08821915	      2.31312466	      0.19528903	     -0.36116081	      2.07271075	      0.14814073	     -0.13066494	      2.27341890	      0.20697901	     -0.35544768	      2.17888331	      0.03649195	     -0.17566282	      2.26458955	      0.06078638	     -0.38906926
